<svg width="174" height="129" viewBox="0 0 174 129" fill="none" xmlns="http://www.w3.org/2000/svg">
<circle cx="87" cy="31" r="31" fill="#212121"/>
<circle cx="87" cy="31" r="6" fill="#27AE60"/>
<path d="M45.224 98V85.4H53.36V87.254H47.528V90.782H52.244V92.6H47.528V98H45.224ZM63.6881 89.072V98H61.6541L61.4741 96.488C61.1981 97.016 60.7961 97.436 60.2681 97.748C59.7521 98.06 59.1401 98.216 58.4321 98.216C57.3281 98.216 56.4701 97.868 55.8581 97.172C55.2461 96.476 54.9401 95.456 54.9401 94.112V89.072H57.2441V93.896C57.2441 94.664 57.4001 95.252 57.7121 95.66C58.0241 96.068 58.5101 96.272 59.1701 96.272C59.8181 96.272 60.3461 96.044 60.7541 95.588C61.1741 95.132 61.3841 94.496 61.3841 93.68V89.072H63.6881ZM66.0352 98V85.04H68.3392V98H66.0352ZM70.6934 98V85.04H72.9974V98H70.6934ZM79.6947 98V85.4H81.9987L87.9207 94.274V85.4H90.2247V98H87.9207L81.9987 89.144V98H79.6947ZM95.6914 98.216C94.9234 98.216 94.2934 98.096 93.8014 97.856C93.3094 97.604 92.9434 97.274 92.7034 96.866C92.4634 96.458 92.3434 96.008 92.3434 95.516C92.3434 94.688 92.6674 94.016 93.3154 93.5C93.9634 92.984 94.9354 92.726 96.2314 92.726H98.4994V92.51C98.4994 91.898 98.3254 91.448 97.9774 91.16C97.6294 90.872 97.1974 90.728 96.6814 90.728C96.2134 90.728 95.8054 90.842 95.4574 91.07C95.1094 91.286 94.8934 91.61 94.8094 92.042H92.5594C92.6194 91.394 92.8354 90.83 93.2074 90.35C93.5914 89.87 94.0834 89.504 94.6834 89.252C95.2834 88.988 95.9554 88.856 96.6994 88.856C97.9714 88.856 98.9734 89.174 99.7054 89.81C100.437 90.446 100.803 91.346 100.803 92.51V98H98.8414L98.6254 96.56C98.3614 97.04 97.9894 97.436 97.5094 97.748C97.0414 98.06 96.4354 98.216 95.6914 98.216ZM96.2134 96.416C96.8734 96.416 97.3834 96.2 97.7434 95.768C98.1154 95.336 98.3494 94.802 98.4454 94.166H96.4834C95.8714 94.166 95.4334 94.28 95.1694 94.508C94.9054 94.724 94.7734 94.994 94.7734 95.318C94.7734 95.666 94.9054 95.936 95.1694 96.128C95.4334 96.32 95.7814 96.416 96.2134 96.416ZM103.002 98V89.072H105.036L105.234 90.278C105.522 89.846 105.9 89.504 106.368 89.252C106.848 88.988 107.4 88.856 108.024 88.856C109.404 88.856 110.382 89.39 110.958 90.458C111.282 89.966 111.714 89.576 112.254 89.288C112.806 89 113.406 88.856 114.054 88.856C115.218 88.856 116.112 89.204 116.736 89.9C117.36 90.596 117.672 91.616 117.672 92.96V98H115.368V93.176C115.368 92.408 115.218 91.82 114.918 91.412C114.63 91.004 114.18 90.8 113.568 90.8C112.944 90.8 112.44 91.028 112.056 91.484C111.684 91.94 111.498 92.576 111.498 93.392V98H109.194V93.176C109.194 92.408 109.044 91.82 108.744 91.412C108.444 91.004 107.982 90.8 107.358 90.8C106.746 90.8 106.248 91.028 105.864 91.484C105.492 91.94 105.306 92.576 105.306 93.392V98H103.002ZM124.197 98.216C123.297 98.216 122.499 98.024 121.803 97.64C121.107 97.256 120.561 96.716 120.165 96.02C119.769 95.324 119.571 94.52 119.571 93.608C119.571 92.684 119.763 91.862 120.147 91.142C120.543 90.422 121.083 89.864 121.767 89.468C122.463 89.06 123.279 88.856 124.215 88.856C125.091 88.856 125.865 89.048 126.537 89.432C127.209 89.816 127.731 90.344 128.103 91.016C128.487 91.676 128.679 92.414 128.679 93.23C128.679 93.362 128.673 93.5 128.661 93.644C128.661 93.788 128.655 93.938 128.643 94.094H121.857C121.905 94.79 122.145 95.336 122.577 95.732C123.021 96.128 123.555 96.326 124.179 96.326C124.647 96.326 125.037 96.224 125.349 96.02C125.673 95.804 125.913 95.528 126.069 95.192H128.409C128.241 95.756 127.959 96.272 127.563 96.74C127.179 97.196 126.699 97.556 126.123 97.82C125.559 98.084 124.917 98.216 124.197 98.216ZM124.215 90.728C123.651 90.728 123.153 90.89 122.721 91.214C122.289 91.526 122.013 92.006 121.893 92.654H126.339C126.303 92.066 126.087 91.598 125.691 91.25C125.295 90.902 124.803 90.728 124.215 90.728Z" fill="white"/>
<path d="M4.464 124V119.212L0.36 111.4H2.07L5.22 117.772L8.37 111.4H10.062L5.976 119.212V124H4.464ZM14.1694 124.216C13.3294 124.216 12.5734 124.024 11.9014 123.64C11.2294 123.256 10.6954 122.716 10.2994 122.02C9.91538 121.312 9.72338 120.484 9.72338 119.536C9.72338 118.588 9.92138 117.766 10.3174 117.07C10.7134 116.362 11.2474 115.816 11.9194 115.432C12.6034 115.048 13.3654 114.856 14.2054 114.856C15.0454 114.856 15.8014 115.048 16.4734 115.432C17.1454 115.816 17.6734 116.362 18.0574 117.07C18.4534 117.766 18.6514 118.588 18.6514 119.536C18.6514 120.484 18.4534 121.312 18.0574 122.02C17.6614 122.716 17.1214 123.256 16.4374 123.64C15.7654 124.024 15.0094 124.216 14.1694 124.216ZM14.1694 122.92C14.6854 122.92 15.1654 122.794 15.6094 122.542C16.0534 122.29 16.4134 121.912 16.6894 121.408C16.9654 120.904 17.1034 120.28 17.1034 119.536C17.1034 118.792 16.9654 118.168 16.6894 117.664C16.4254 117.16 16.0714 116.782 15.6274 116.53C15.1834 116.278 14.7094 116.152 14.2054 116.152C13.6894 116.152 13.2094 116.278 12.7654 116.53C12.3214 116.782 11.9614 117.16 11.6854 117.664C11.4094 118.168 11.2714 118.792 11.2714 119.536C11.2714 120.28 11.4094 120.904 11.6854 121.408C11.9614 121.912 12.3154 122.29 12.7474 122.542C13.1914 122.794 13.6654 122.92 14.1694 122.92ZM28.5657 115.072V124H27.1977L27.1077 122.398C26.8197 122.962 26.4057 123.406 25.8657 123.73C25.3257 124.054 24.7137 124.216 24.0297 124.216C22.9737 124.216 22.1277 123.898 21.4917 123.262C20.8677 122.614 20.5557 121.624 20.5557 120.292V115.072H22.0677V120.13C22.0677 121.99 22.8357 122.92 24.3717 122.92C25.1397 122.92 25.7757 122.644 26.2797 122.092C26.7957 121.528 27.0537 120.73 27.0537 119.698V115.072H28.5657ZM31.0545 124V115.072H32.4225L32.5485 116.782C32.8245 116.194 33.2445 115.726 33.8085 115.378C34.3725 115.03 35.0685 114.856 35.8965 114.856V116.44H35.4825C34.9545 116.44 34.4685 116.536 34.0245 116.728C33.5805 116.908 33.2265 117.22 32.9625 117.664C32.6985 118.108 32.5665 118.72 32.5665 119.5V124H31.0545ZM42.3572 124V115.072H43.7252L43.8152 116.674C44.1032 116.11 44.5172 115.666 45.0572 115.342C45.5972 115.018 46.2092 114.856 46.8932 114.856C47.9492 114.856 48.7892 115.18 49.4132 115.828C50.0492 116.464 50.3672 117.448 50.3672 118.78V124H48.8552V118.942C48.8552 117.082 48.0872 116.152 46.5512 116.152C45.7832 116.152 45.1412 116.434 44.6252 116.998C44.1212 117.55 43.8692 118.342 43.8692 119.374V124H42.3572ZM55.628 124.216C54.884 124.216 54.266 124.09 53.774 123.838C53.282 123.586 52.916 123.25 52.676 122.83C52.436 122.41 52.316 121.954 52.316 121.462C52.316 120.55 52.664 119.848 53.36 119.356C54.056 118.864 55.004 118.618 56.204 118.618H58.616V118.51C58.616 117.73 58.412 117.142 58.004 116.746C57.596 116.338 57.05 116.134 56.366 116.134C55.778 116.134 55.268 116.284 54.836 116.584C54.416 116.872 54.152 117.298 54.044 117.862H52.496C52.556 117.214 52.772 116.668 53.144 116.224C53.528 115.78 54.002 115.444 54.566 115.216C55.13 114.976 55.73 114.856 56.366 114.856C57.614 114.856 58.55 115.192 59.174 115.864C59.81 116.524 60.128 117.406 60.128 118.51V124H58.778L58.688 122.398C58.436 122.902 58.064 123.334 57.572 123.694C57.092 124.042 56.444 124.216 55.628 124.216ZM55.862 122.938C56.438 122.938 56.93 122.788 57.338 122.488C57.758 122.188 58.076 121.798 58.292 121.318C58.508 120.838 58.616 120.334 58.616 119.806V119.788H56.33C55.442 119.788 54.812 119.944 54.44 120.256C54.08 120.556 53.9 120.934 53.9 121.39C53.9 121.858 54.068 122.236 54.404 122.524C54.752 122.8 55.238 122.938 55.862 122.938ZM62.3963 124V115.072H63.7643L63.8723 116.368C64.1603 115.888 64.5443 115.516 65.0243 115.252C65.5043 114.988 66.0443 114.856 66.6443 114.856C67.3523 114.856 67.9583 115 68.4623 115.288C68.9783 115.576 69.3743 116.014 69.6503 116.602C69.9623 116.062 70.3883 115.636 70.9283 115.324C71.4803 115.012 72.0743 114.856 72.7103 114.856C73.7783 114.856 74.6303 115.18 75.2663 115.828C75.9023 116.464 76.2203 117.448 76.2203 118.78V124H74.7263V118.942C74.7263 118.018 74.5403 117.322 74.1683 116.854C73.7963 116.386 73.2623 116.152 72.5663 116.152C71.8463 116.152 71.2463 116.434 70.7663 116.998C70.2983 117.55 70.0643 118.342 70.0643 119.374V124H68.5523V118.942C68.5523 118.018 68.3663 117.322 67.9943 116.854C67.6223 116.386 67.0883 116.152 66.3923 116.152C65.6843 116.152 65.0903 116.434 64.6103 116.998C64.1423 117.55 63.9083 118.342 63.9083 119.374V124H62.3963ZM82.5119 124.216C81.6599 124.216 80.9039 124.024 80.2439 123.64C79.5839 123.244 79.0619 122.698 78.6779 122.002C78.3059 121.306 78.1199 120.484 78.1199 119.536C78.1199 118.6 78.3059 117.784 78.6779 117.088C79.0499 116.38 79.5659 115.834 80.2259 115.45C80.8979 115.054 81.6719 114.856 82.5479 114.856C83.4119 114.856 84.1559 115.054 84.7799 115.45C85.4159 115.834 85.9019 116.344 86.2379 116.98C86.5739 117.616 86.7419 118.3 86.7419 119.032C86.7419 119.164 86.7359 119.296 86.7239 119.428C86.7239 119.56 86.7239 119.71 86.7239 119.878H79.6139C79.6499 120.562 79.8059 121.132 80.0819 121.588C80.3699 122.032 80.7239 122.368 81.1439 122.596C81.5759 122.824 82.0319 122.938 82.5119 122.938C83.1359 122.938 83.6579 122.794 84.0779 122.506C84.4979 122.218 84.8039 121.828 84.9959 121.336H86.4899C86.2499 122.164 85.7879 122.854 85.1039 123.406C84.4319 123.946 83.5679 124.216 82.5119 124.216ZM82.5119 116.134C81.7919 116.134 81.1499 116.356 80.5859 116.8C80.0339 117.232 79.7159 117.868 79.6319 118.708H85.2479C85.2119 117.904 84.9359 117.274 84.4199 116.818C83.9039 116.362 83.2679 116.134 82.5119 116.134ZM97.0376 121.192C96.5336 121.192 96.0716 121.126 95.6516 120.994L94.7516 121.84C94.8836 121.936 95.0456 122.02 95.2376 122.092C95.4416 122.152 95.7296 122.212 96.1016 122.272C96.4736 122.32 96.9956 122.374 97.6676 122.434C98.8676 122.518 99.7256 122.794 100.242 123.262C100.758 123.73 101.016 124.342 101.016 125.098C101.016 125.614 100.872 126.106 100.584 126.574C100.308 127.042 99.8756 127.426 99.2876 127.726C98.7116 128.026 97.9676 128.176 97.0556 128.176C96.2516 128.176 95.5376 128.068 94.9136 127.852C94.2896 127.648 93.8036 127.33 93.4556 126.898C93.1076 126.478 92.9336 125.944 92.9336 125.296C92.9336 124.96 93.0236 124.594 93.2036 124.198C93.3836 123.814 93.7196 123.448 94.2116 123.1C93.9476 122.992 93.7196 122.878 93.5276 122.758C93.3476 122.626 93.1796 122.482 93.0236 122.326V121.912L94.5536 120.4C93.8456 119.8 93.4916 119.008 93.4916 118.024C93.4916 117.436 93.6296 116.902 93.9056 116.422C94.1816 115.942 94.5836 115.564 95.1116 115.288C95.6396 115 96.2816 114.856 97.0376 114.856C97.5536 114.856 98.0216 114.928 98.4416 115.072H101.736V116.206L100.062 116.278C100.41 116.782 100.584 117.364 100.584 118.024C100.584 118.612 100.44 119.146 100.152 119.626C99.8756 120.106 99.4736 120.49 98.9456 120.778C98.4296 121.054 97.7936 121.192 97.0376 121.192ZM97.0376 119.95C97.6736 119.95 98.1776 119.788 98.5496 119.464C98.9336 119.128 99.1256 118.648 99.1256 118.024C99.1256 117.412 98.9336 116.944 98.5496 116.62C98.1776 116.284 97.6736 116.116 97.0376 116.116C96.3896 116.116 95.8736 116.284 95.4896 116.62C95.1176 116.944 94.9316 117.412 94.9316 118.024C94.9316 118.648 95.1176 119.128 95.4896 119.464C95.8736 119.788 96.3896 119.95 97.0376 119.95ZM94.4096 125.152C94.4096 125.752 94.6616 126.196 95.1656 126.484C95.6696 126.784 96.2996 126.934 97.0556 126.934C97.7996 126.934 98.3936 126.772 98.8376 126.448C99.2936 126.124 99.5216 125.692 99.5216 125.152C99.5216 124.768 99.3656 124.432 99.0536 124.144C98.7416 123.868 98.1656 123.706 97.3256 123.658C96.6656 123.61 96.0956 123.55 95.6156 123.478C95.1236 123.742 94.7996 124.024 94.6436 124.324C94.4876 124.636 94.4096 124.912 94.4096 125.152ZM107.158 124.216C106.318 124.216 105.562 124.024 104.89 123.64C104.218 123.256 103.684 122.716 103.288 122.02C102.904 121.312 102.712 120.484 102.712 119.536C102.712 118.588 102.91 117.766 103.306 117.07C103.702 116.362 104.236 115.816 104.908 115.432C105.592 115.048 106.354 114.856 107.194 114.856C108.034 114.856 108.79 115.048 109.462 115.432C110.134 115.816 110.662 116.362 111.046 117.07C111.442 117.766 111.64 118.588 111.64 119.536C111.64 120.484 111.442 121.312 111.046 122.02C110.65 122.716 110.11 123.256 109.426 123.64C108.754 124.024 107.998 124.216 107.158 124.216ZM107.158 122.92C107.674 122.92 108.154 122.794 108.598 122.542C109.042 122.29 109.402 121.912 109.678 121.408C109.954 120.904 110.092 120.28 110.092 119.536C110.092 118.792 109.954 118.168 109.678 117.664C109.414 117.16 109.06 116.782 108.616 116.53C108.172 116.278 107.698 116.152 107.194 116.152C106.678 116.152 106.198 116.278 105.754 116.53C105.31 116.782 104.95 117.16 104.674 117.664C104.398 118.168 104.26 118.792 104.26 119.536C104.26 120.28 104.398 120.904 104.674 121.408C104.95 121.912 105.304 122.29 105.736 122.542C106.18 122.794 106.654 122.92 107.158 122.92ZM117.756 124.216C116.904 124.216 116.148 124.024 115.488 123.64C114.828 123.244 114.306 122.698 113.922 122.002C113.55 121.306 113.364 120.484 113.364 119.536C113.364 118.6 113.55 117.784 113.922 117.088C114.294 116.38 114.81 115.834 115.47 115.45C116.142 115.054 116.916 114.856 117.792 114.856C118.656 114.856 119.4 115.054 120.024 115.45C120.66 115.834 121.146 116.344 121.482 116.98C121.818 117.616 121.986 118.3 121.986 119.032C121.986 119.164 121.98 119.296 121.968 119.428C121.968 119.56 121.968 119.71 121.968 119.878H114.858C114.894 120.562 115.05 121.132 115.326 121.588C115.614 122.032 115.968 122.368 116.388 122.596C116.82 122.824 117.276 122.938 117.756 122.938C118.38 122.938 118.902 122.794 119.322 122.506C119.742 122.218 120.048 121.828 120.24 121.336H121.734C121.494 122.164 121.032 122.854 120.348 123.406C119.676 123.946 118.812 124.216 117.756 124.216ZM117.756 116.134C117.036 116.134 116.394 116.356 115.83 116.8C115.278 117.232 114.96 117.868 114.876 118.708H120.492C120.456 117.904 120.18 117.274 119.664 116.818C119.148 116.362 118.512 116.134 117.756 116.134ZM127.41 124.216C126.342 124.216 125.454 123.946 124.746 123.406C124.038 122.866 123.624 122.134 123.504 121.21H125.052C125.148 121.678 125.394 122.086 125.79 122.434C126.198 122.77 126.744 122.938 127.428 122.938C128.064 122.938 128.532 122.806 128.832 122.542C129.132 122.266 129.282 121.942 129.282 121.57C129.282 121.03 129.084 120.67 128.688 120.49C128.304 120.31 127.758 120.148 127.05 120.004C126.57 119.908 126.09 119.77 125.61 119.59C125.13 119.41 124.728 119.158 124.404 118.834C124.08 118.498 123.918 118.06 123.918 117.52C123.918 116.74 124.206 116.104 124.782 115.612C125.37 115.108 126.162 114.856 127.158 114.856C128.106 114.856 128.88 115.096 129.48 115.576C130.092 116.044 130.446 116.716 130.542 117.592H129.048C128.988 117.136 128.79 116.782 128.454 116.53C128.13 116.266 127.692 116.134 127.14 116.134C126.6 116.134 126.18 116.248 125.88 116.476C125.592 116.704 125.448 117.004 125.448 117.376C125.448 117.736 125.634 118.018 126.006 118.222C126.39 118.426 126.906 118.6 127.554 118.744C128.106 118.864 128.628 119.014 129.12 119.194C129.624 119.362 130.032 119.62 130.344 119.968C130.668 120.304 130.83 120.796 130.83 121.444C130.842 122.248 130.536 122.914 129.912 123.442C129.3 123.958 128.466 124.216 127.41 124.216ZM137.754 124V111.04H139.266V116.602C139.566 116.05 139.992 115.624 140.544 115.324C141.096 115.012 141.696 114.856 142.344 114.856C143.376 114.856 144.204 115.18 144.828 115.828C145.452 116.464 145.764 117.448 145.764 118.78V124H144.27V118.942C144.27 117.082 143.52 116.152 142.02 116.152C141.24 116.152 140.586 116.434 140.058 116.998C139.53 117.55 139.266 118.342 139.266 119.374V124H137.754ZM152.069 124.216C151.217 124.216 150.461 124.024 149.801 123.64C149.141 123.244 148.619 122.698 148.235 122.002C147.863 121.306 147.677 120.484 147.677 119.536C147.677 118.6 147.863 117.784 148.235 117.088C148.607 116.38 149.123 115.834 149.783 115.45C150.455 115.054 151.229 114.856 152.104 114.856C152.969 114.856 153.713 115.054 154.337 115.45C154.973 115.834 155.459 116.344 155.795 116.98C156.131 117.616 156.299 118.3 156.299 119.032C156.299 119.164 156.293 119.296 156.281 119.428C156.281 119.56 156.281 119.71 156.281 119.878H149.171C149.207 120.562 149.363 121.132 149.639 121.588C149.927 122.032 150.281 122.368 150.701 122.596C151.133 122.824 151.589 122.938 152.069 122.938C152.693 122.938 153.215 122.794 153.635 122.506C154.055 122.218 154.361 121.828 154.553 121.336H156.047C155.807 122.164 155.345 122.854 154.661 123.406C153.989 123.946 153.125 124.216 152.069 124.216ZM152.069 116.134C151.349 116.134 150.707 116.356 150.143 116.8C149.591 117.232 149.273 117.868 149.188 118.708H154.805C154.769 117.904 154.493 117.274 153.977 116.818C153.461 116.362 152.825 116.134 152.069 116.134ZM158.303 124V115.072H159.671L159.797 116.782C160.073 116.194 160.493 115.726 161.057 115.378C161.621 115.03 162.317 114.856 163.145 114.856V116.44H162.731C162.203 116.44 161.717 116.536 161.273 116.728C160.829 116.908 160.475 117.22 160.211 117.664C159.947 118.108 159.815 118.72 159.815 119.5V124H158.303ZM168.522 124.216C167.67 124.216 166.914 124.024 166.254 123.64C165.594 123.244 165.072 122.698 164.688 122.002C164.316 121.306 164.13 120.484 164.13 119.536C164.13 118.6 164.316 117.784 164.688 117.088C165.06 116.38 165.576 115.834 166.236 115.45C166.908 115.054 167.682 114.856 168.558 114.856C169.422 114.856 170.166 115.054 170.79 115.45C171.426 115.834 171.912 116.344 172.248 116.98C172.584 117.616 172.752 118.3 172.752 119.032C172.752 119.164 172.746 119.296 172.734 119.428C172.734 119.56 172.734 119.71 172.734 119.878H165.624C165.66 120.562 165.816 121.132 166.092 121.588C166.38 122.032 166.734 122.368 167.154 122.596C167.586 122.824 168.042 122.938 168.522 122.938C169.146 122.938 169.668 122.794 170.088 122.506C170.508 122.218 170.814 121.828 171.006 121.336H172.5C172.26 122.164 171.798 122.854 171.114 123.406C170.442 123.946 169.578 124.216 168.522 124.216ZM168.522 116.134C167.802 116.134 167.16 116.356 166.596 116.8C166.044 117.232 165.726 117.868 165.642 118.708H171.258C171.222 117.904 170.946 117.274 170.43 116.818C169.914 116.362 169.278 116.134 168.522 116.134Z" fill="white"/>
</svg>
