<svg width="172" height="129" viewBox="0 0 172 129" fill="none" xmlns="http://www.w3.org/2000/svg">
<circle cx="86" cy="31" r="31" fill="#212121"/>
<circle cx="86" cy="31" r="6" fill="#27AE60"/>
<path d="M25.224 98V85.4H33.45V87.254H27.528V90.71H32.91V92.51H27.528V96.146H33.45V98H25.224ZM35.5763 98V89.072H37.6103L37.8083 90.278C38.0963 89.846 38.4743 89.504 38.9423 89.252C39.4223 88.988 39.9743 88.856 40.5983 88.856C41.9783 88.856 42.9563 89.39 43.5323 90.458C43.8563 89.966 44.2883 89.576 44.8283 89.288C45.3803 89 45.9803 88.856 46.6283 88.856C47.7923 88.856 48.6863 89.204 49.3103 89.9C49.9343 90.596 50.2463 91.616 50.2463 92.96V98H47.9423V93.176C47.9423 92.408 47.7923 91.82 47.4923 91.412C47.2043 91.004 46.7543 90.8 46.1423 90.8C45.5183 90.8 45.0143 91.028 44.6303 91.484C44.2583 91.94 44.0723 92.576 44.0723 93.392V98H41.7683V93.176C41.7683 92.408 41.6183 91.82 41.3183 91.412C41.0183 91.004 40.5563 90.8 39.9323 90.8C39.3203 90.8 38.8223 91.028 38.4383 91.484C38.0663 91.94 37.8803 92.576 37.8803 93.392V98H35.5763ZM55.5117 98.216C54.7437 98.216 54.1137 98.096 53.6217 97.856C53.1297 97.604 52.7637 97.274 52.5237 96.866C52.2837 96.458 52.1637 96.008 52.1637 95.516C52.1637 94.688 52.4877 94.016 53.1357 93.5C53.7837 92.984 54.7557 92.726 56.0517 92.726H58.3197V92.51C58.3197 91.898 58.1457 91.448 57.7977 91.16C57.4497 90.872 57.0177 90.728 56.5017 90.728C56.0337 90.728 55.6257 90.842 55.2777 91.07C54.9297 91.286 54.7137 91.61 54.6297 92.042H52.3797C52.4397 91.394 52.6557 90.83 53.0277 90.35C53.4117 89.87 53.9037 89.504 54.5037 89.252C55.1037 88.988 55.7757 88.856 56.5197 88.856C57.7917 88.856 58.7937 89.174 59.5257 89.81C60.2577 90.446 60.6237 91.346 60.6237 92.51V98H58.6617L58.4457 96.56C58.1817 97.04 57.8097 97.436 57.3297 97.748C56.8617 98.06 56.2557 98.216 55.5117 98.216ZM56.0337 96.416C56.6937 96.416 57.2037 96.2 57.5637 95.768C57.9357 95.336 58.1697 94.802 58.2657 94.166H56.3037C55.6917 94.166 55.2537 94.28 54.9897 94.508C54.7257 94.724 54.5937 94.994 54.5937 95.318C54.5937 95.666 54.7257 95.936 54.9897 96.128C55.2537 96.32 55.6017 96.416 56.0337 96.416ZM64.0643 87.686C63.6443 87.686 63.2963 87.56 63.0203 87.308C62.7563 87.056 62.6243 86.738 62.6243 86.354C62.6243 85.97 62.7563 85.658 63.0203 85.418C63.2963 85.166 63.6443 85.04 64.0643 85.04C64.4843 85.04 64.8263 85.166 65.0903 85.418C65.3663 85.658 65.5043 85.97 65.5043 86.354C65.5043 86.738 65.3663 87.056 65.0903 87.308C64.8263 87.56 64.4843 87.686 64.0643 87.686ZM62.9123 98V89.072H65.2163V98H62.9123ZM67.6212 98V85.04H69.9252V98H67.6212ZM75.8124 98L80.4204 85.4H83.0124L87.6204 98H85.1724L84.1644 95.084H79.2504L78.2244 98H75.8124ZM79.8804 93.284H83.5344L81.6984 88.046L79.8804 93.284ZM92.8717 98.216C92.0317 98.216 91.2817 98.012 90.6217 97.604C89.9617 97.196 89.4397 96.638 89.0557 95.93C88.6717 95.222 88.4797 94.418 88.4797 93.518C88.4797 92.618 88.6717 91.82 89.0557 91.124C89.4397 90.416 89.9617 89.864 90.6217 89.468C91.2817 89.06 92.0317 88.856 92.8717 88.856C93.5437 88.856 94.1317 88.982 94.6357 89.234C95.1397 89.486 95.5477 89.84 95.8597 90.296V85.04H98.1637V98H96.1117L95.8597 96.722C95.5717 97.118 95.1877 97.466 94.7077 97.766C94.2397 98.066 93.6277 98.216 92.8717 98.216ZM93.3577 96.2C94.1017 96.2 94.7077 95.954 95.1757 95.462C95.6557 94.958 95.8957 94.316 95.8957 93.536C95.8957 92.756 95.6557 92.12 95.1757 91.628C94.7077 91.124 94.1017 90.872 93.3577 90.872C92.6257 90.872 92.0197 91.118 91.5397 91.61C91.0597 92.102 90.8197 92.738 90.8197 93.518C90.8197 94.298 91.0597 94.94 91.5397 95.444C92.0197 95.948 92.6257 96.2 93.3577 96.2ZM104.614 98.216C103.774 98.216 103.024 98.012 102.364 97.604C101.704 97.196 101.182 96.638 100.798 95.93C100.414 95.222 100.222 94.418 100.222 93.518C100.222 92.618 100.414 91.82 100.798 91.124C101.182 90.416 101.704 89.864 102.364 89.468C103.024 89.06 103.774 88.856 104.614 88.856C105.286 88.856 105.874 88.982 106.378 89.234C106.882 89.486 107.29 89.84 107.602 90.296V85.04H109.906V98H107.854L107.602 96.722C107.314 97.118 106.93 97.466 106.45 97.766C105.982 98.066 105.37 98.216 104.614 98.216ZM105.1 96.2C105.844 96.2 106.45 95.954 106.918 95.462C107.398 94.958 107.638 94.316 107.638 93.536C107.638 92.756 107.398 92.12 106.918 91.628C106.45 91.124 105.844 90.872 105.1 90.872C104.368 90.872 103.762 91.118 103.282 91.61C102.802 92.102 102.562 92.738 102.562 93.518C102.562 94.298 102.802 94.94 103.282 95.444C103.762 95.948 104.368 96.2 105.1 96.2ZM112.252 98V89.072H114.304L114.52 90.746C114.844 90.17 115.282 89.714 115.834 89.378C116.398 89.03 117.058 88.856 117.814 88.856V91.286H117.166C116.662 91.286 116.212 91.364 115.816 91.52C115.42 91.676 115.108 91.946 114.88 92.33C114.664 92.714 114.556 93.248 114.556 93.932V98H112.252ZM123.569 98.216C122.669 98.216 121.871 98.024 121.175 97.64C120.479 97.256 119.933 96.716 119.537 96.02C119.141 95.324 118.943 94.52 118.943 93.608C118.943 92.684 119.135 91.862 119.519 91.142C119.915 90.422 120.455 89.864 121.139 89.468C121.835 89.06 122.651 88.856 123.587 88.856C124.463 88.856 125.237 89.048 125.909 89.432C126.581 89.816 127.103 90.344 127.475 91.016C127.859 91.676 128.051 92.414 128.051 93.23C128.051 93.362 128.045 93.5 128.033 93.644C128.033 93.788 128.027 93.938 128.015 94.094H121.229C121.277 94.79 121.517 95.336 121.949 95.732C122.393 96.128 122.927 96.326 123.551 96.326C124.019 96.326 124.409 96.224 124.721 96.02C125.045 95.804 125.285 95.528 125.441 95.192H127.781C127.613 95.756 127.331 96.272 126.935 96.74C126.551 97.196 126.071 97.556 125.495 97.82C124.931 98.084 124.289 98.216 123.569 98.216ZM123.587 90.728C123.023 90.728 122.525 90.89 122.093 91.214C121.661 91.526 121.385 92.006 121.265 92.654H125.711C125.675 92.066 125.459 91.598 125.063 91.25C124.667 90.902 124.175 90.728 123.587 90.728ZM133.678 98.216C132.886 98.216 132.19 98.09 131.59 97.838C130.99 97.574 130.51 97.214 130.15 96.758C129.79 96.302 129.574 95.774 129.502 95.174H131.824C131.896 95.522 132.088 95.822 132.4 96.074C132.724 96.314 133.138 96.434 133.642 96.434C134.146 96.434 134.512 96.332 134.74 96.128C134.98 95.924 135.1 95.69 135.1 95.426C135.1 95.042 134.932 94.784 134.596 94.652C134.26 94.508 133.792 94.37 133.192 94.238C132.808 94.154 132.418 94.052 132.022 93.932C131.626 93.812 131.26 93.662 130.924 93.482C130.6 93.29 130.336 93.05 130.132 92.762C129.928 92.462 129.826 92.096 129.826 91.664C129.826 90.872 130.138 90.206 130.762 89.666C131.398 89.126 132.286 88.856 133.426 88.856C134.482 88.856 135.322 89.102 135.946 89.594C136.582 90.086 136.96 90.764 137.08 91.628H134.902C134.77 90.968 134.272 90.638 133.408 90.638C132.976 90.638 132.64 90.722 132.4 90.89C132.172 91.058 132.058 91.268 132.058 91.52C132.058 91.784 132.232 91.994 132.58 92.15C132.928 92.306 133.39 92.45 133.966 92.582C134.59 92.726 135.16 92.888 135.676 93.068C136.204 93.236 136.624 93.494 136.936 93.842C137.248 94.178 137.404 94.664 137.404 95.3C137.416 95.852 137.272 96.35 136.972 96.794C136.672 97.238 136.24 97.586 135.676 97.838C135.112 98.09 134.446 98.216 133.678 98.216ZM143.135 98.216C142.343 98.216 141.647 98.09 141.047 97.838C140.447 97.574 139.967 97.214 139.607 96.758C139.247 96.302 139.031 95.774 138.959 95.174H141.281C141.353 95.522 141.545 95.822 141.857 96.074C142.181 96.314 142.595 96.434 143.099 96.434C143.603 96.434 143.969 96.332 144.197 96.128C144.437 95.924 144.557 95.69 144.557 95.426C144.557 95.042 144.389 94.784 144.053 94.652C143.717 94.508 143.249 94.37 142.649 94.238C142.265 94.154 141.875 94.052 141.479 93.932C141.083 93.812 140.717 93.662 140.381 93.482C140.057 93.29 139.793 93.05 139.589 92.762C139.385 92.462 139.283 92.096 139.283 91.664C139.283 90.872 139.595 90.206 140.219 89.666C140.855 89.126 141.743 88.856 142.883 88.856C143.939 88.856 144.779 89.102 145.403 89.594C146.039 90.086 146.417 90.764 146.537 91.628H144.359C144.227 90.968 143.729 90.638 142.865 90.638C142.433 90.638 142.097 90.722 141.857 90.89C141.629 91.058 141.515 91.268 141.515 91.52C141.515 91.784 141.689 91.994 142.037 92.15C142.385 92.306 142.847 92.45 143.423 92.582C144.047 92.726 144.617 92.888 145.133 93.068C145.661 93.236 146.081 93.494 146.393 93.842C146.705 94.178 146.861 94.664 146.861 95.3C146.873 95.852 146.729 96.35 146.429 96.794C146.129 97.238 145.697 97.586 145.133 97.838C144.569 98.09 143.903 98.216 143.135 98.216Z" fill="white"/>
<path d="M4.464 124V119.212L0.36 111.4H2.07L5.22 117.772L8.37 111.4H10.062L5.976 119.212V124H4.464ZM14.1694 124.216C13.3294 124.216 12.5734 124.024 11.9014 123.64C11.2294 123.256 10.6954 122.716 10.2994 122.02C9.91538 121.312 9.72338 120.484 9.72338 119.536C9.72338 118.588 9.92138 117.766 10.3174 117.07C10.7134 116.362 11.2474 115.816 11.9194 115.432C12.6034 115.048 13.3654 114.856 14.2054 114.856C15.0454 114.856 15.8014 115.048 16.4734 115.432C17.1454 115.816 17.6734 116.362 18.0574 117.07C18.4534 117.766 18.6514 118.588 18.6514 119.536C18.6514 120.484 18.4534 121.312 18.0574 122.02C17.6614 122.716 17.1214 123.256 16.4374 123.64C15.7654 124.024 15.0094 124.216 14.1694 124.216ZM14.1694 122.92C14.6854 122.92 15.1654 122.794 15.6094 122.542C16.0534 122.29 16.4134 121.912 16.6894 121.408C16.9654 120.904 17.1034 120.28 17.1034 119.536C17.1034 118.792 16.9654 118.168 16.6894 117.664C16.4254 117.16 16.0714 116.782 15.6274 116.53C15.1834 116.278 14.7094 116.152 14.2054 116.152C13.6894 116.152 13.2094 116.278 12.7654 116.53C12.3214 116.782 11.9614 117.16 11.6854 117.664C11.4094 118.168 11.2714 118.792 11.2714 119.536C11.2714 120.28 11.4094 120.904 11.6854 121.408C11.9614 121.912 12.3154 122.29 12.7474 122.542C13.1914 122.794 13.6654 122.92 14.1694 122.92ZM28.5657 115.072V124H27.1977L27.1077 122.398C26.8197 122.962 26.4057 123.406 25.8657 123.73C25.3257 124.054 24.7137 124.216 24.0297 124.216C22.9737 124.216 22.1277 123.898 21.4917 123.262C20.8677 122.614 20.5557 121.624 20.5557 120.292V115.072H22.0677V120.13C22.0677 121.99 22.8357 122.92 24.3717 122.92C25.1397 122.92 25.7757 122.644 26.2797 122.092C26.7957 121.528 27.0537 120.73 27.0537 119.698V115.072H28.5657ZM31.0545 124V115.072H32.4225L32.5485 116.782C32.8245 116.194 33.2445 115.726 33.8085 115.378C34.3725 115.03 35.0685 114.856 35.8965 114.856V116.44H35.4825C34.9545 116.44 34.4685 116.536 34.0245 116.728C33.5805 116.908 33.2265 117.22 32.9625 117.664C32.6985 118.108 32.5665 118.72 32.5665 119.5V124H31.0545ZM46.3712 124.216C45.5192 124.216 44.7632 124.024 44.1032 123.64C43.4432 123.244 42.9212 122.698 42.5372 122.002C42.1652 121.306 41.9792 120.484 41.9792 119.536C41.9792 118.6 42.1652 117.784 42.5372 117.088C42.9092 116.38 43.4252 115.834 44.0852 115.45C44.7572 115.054 45.5312 114.856 46.4072 114.856C47.2712 114.856 48.0152 115.054 48.6392 115.45C49.2752 115.834 49.7612 116.344 50.0972 116.98C50.4332 117.616 50.6012 118.3 50.6012 119.032C50.6012 119.164 50.5952 119.296 50.5832 119.428C50.5832 119.56 50.5832 119.71 50.5832 119.878H43.4732C43.5092 120.562 43.6652 121.132 43.9412 121.588C44.2292 122.032 44.5832 122.368 45.0032 122.596C45.4352 122.824 45.8912 122.938 46.3712 122.938C46.9952 122.938 47.5172 122.794 47.9372 122.506C48.3572 122.218 48.6632 121.828 48.8552 121.336H50.3492C50.1092 122.164 49.6472 122.854 48.9632 123.406C48.2912 123.946 47.4272 124.216 46.3712 124.216ZM46.3712 116.134C45.6512 116.134 45.0092 116.356 44.4452 116.8C43.8932 117.232 43.5752 117.868 43.4912 118.708H49.1072C49.0712 117.904 48.7952 117.274 48.2792 116.818C47.7632 116.362 47.1272 116.134 46.3712 116.134ZM52.6053 124V115.072H53.9733L54.0813 116.368C54.3693 115.888 54.7533 115.516 55.2333 115.252C55.7133 114.988 56.2533 114.856 56.8533 114.856C57.5613 114.856 58.1673 115 58.6713 115.288C59.1873 115.576 59.5833 116.014 59.8593 116.602C60.1713 116.062 60.5973 115.636 61.1373 115.324C61.6893 115.012 62.2833 114.856 62.9193 114.856C63.9873 114.856 64.8393 115.18 65.4753 115.828C66.1113 116.464 66.4293 117.448 66.4293 118.78V124H64.9353V118.942C64.9353 118.018 64.7493 117.322 64.3773 116.854C64.0053 116.386 63.4713 116.152 62.7753 116.152C62.0553 116.152 61.4553 116.434 60.9753 116.998C60.5073 117.55 60.2733 118.342 60.2733 119.374V124H58.7613V118.942C58.7613 118.018 58.5753 117.322 58.2033 116.854C57.8313 116.386 57.2973 116.152 56.6013 116.152C55.8933 116.152 55.2993 116.434 54.8193 116.998C54.3513 117.55 54.1173 118.342 54.1173 119.374V124H52.6053ZM71.6768 124.216C70.9328 124.216 70.3148 124.09 69.8228 123.838C69.3308 123.586 68.9648 123.25 68.7248 122.83C68.4848 122.41 68.3648 121.954 68.3648 121.462C68.3648 120.55 68.7128 119.848 69.4088 119.356C70.1048 118.864 71.0528 118.618 72.2528 118.618H74.6648V118.51C74.6648 117.73 74.4608 117.142 74.0528 116.746C73.6448 116.338 73.0988 116.134 72.4148 116.134C71.8268 116.134 71.3168 116.284 70.8848 116.584C70.4648 116.872 70.2008 117.298 70.0928 117.862H68.5448C68.6048 117.214 68.8208 116.668 69.1928 116.224C69.5768 115.78 70.0508 115.444 70.6148 115.216C71.1788 114.976 71.7788 114.856 72.4148 114.856C73.6628 114.856 74.5988 115.192 75.2228 115.864C75.8588 116.524 76.1768 117.406 76.1768 118.51V124H74.8268L74.7368 122.398C74.4848 122.902 74.1128 123.334 73.6208 123.694C73.1408 124.042 72.4928 124.216 71.6768 124.216ZM71.9108 122.938C72.4868 122.938 72.9788 122.788 73.3868 122.488C73.8068 122.188 74.1248 121.798 74.3408 121.318C74.5568 120.838 74.6648 120.334 74.6648 119.806V119.788H72.3788C71.4908 119.788 70.8608 119.944 70.4888 120.256C70.1288 120.556 69.9488 120.934 69.9488 121.39C69.9488 121.858 70.1168 122.236 70.4528 122.524C70.8008 122.8 71.2868 122.938 71.9108 122.938ZM79.3631 113.092C79.0631 113.092 78.8111 112.996 78.6071 112.804C78.4151 112.6 78.3191 112.348 78.3191 112.048C78.3191 111.76 78.4151 111.52 78.6071 111.328C78.8111 111.136 79.0631 111.04 79.3631 111.04C79.6511 111.04 79.8971 111.136 80.1011 111.328C80.3051 111.52 80.4071 111.76 80.4071 112.048C80.4071 112.348 80.3051 112.6 80.1011 112.804C79.8971 112.996 79.6511 113.092 79.3631 113.092ZM78.6071 124V115.072H80.1191V124H78.6071ZM82.7518 124V111.04H84.2638V124H82.7518ZM95.0337 121.192C94.5297 121.192 94.0677 121.126 93.6477 120.994L92.7477 121.84C92.8797 121.936 93.0417 122.02 93.2337 122.092C93.4377 122.152 93.7257 122.212 94.0977 122.272C94.4697 122.32 94.9917 122.374 95.6637 122.434C96.8637 122.518 97.7217 122.794 98.2377 123.262C98.7537 123.73 99.0117 124.342 99.0117 125.098C99.0117 125.614 98.8677 126.106 98.5797 126.574C98.3037 127.042 97.8717 127.426 97.2837 127.726C96.7077 128.026 95.9637 128.176 95.0517 128.176C94.2477 128.176 93.5337 128.068 92.9097 127.852C92.2857 127.648 91.7997 127.33 91.4517 126.898C91.1037 126.478 90.9297 125.944 90.9297 125.296C90.9297 124.96 91.0197 124.594 91.1997 124.198C91.3797 123.814 91.7157 123.448 92.2077 123.1C91.9437 122.992 91.7157 122.878 91.5237 122.758C91.3437 122.626 91.1757 122.482 91.0197 122.326V121.912L92.5497 120.4C91.8417 119.8 91.4877 119.008 91.4877 118.024C91.4877 117.436 91.6257 116.902 91.9017 116.422C92.1777 115.942 92.5797 115.564 93.1077 115.288C93.6357 115 94.2777 114.856 95.0337 114.856C95.5497 114.856 96.0177 114.928 96.4377 115.072H99.7317V116.206L98.0577 116.278C98.4057 116.782 98.5797 117.364 98.5797 118.024C98.5797 118.612 98.4357 119.146 98.1477 119.626C97.8717 120.106 97.4697 120.49 96.9417 120.778C96.4257 121.054 95.7897 121.192 95.0337 121.192ZM95.0337 119.95C95.6697 119.95 96.1737 119.788 96.5457 119.464C96.9297 119.128 97.1217 118.648 97.1217 118.024C97.1217 117.412 96.9297 116.944 96.5457 116.62C96.1737 116.284 95.6697 116.116 95.0337 116.116C94.3857 116.116 93.8697 116.284 93.4857 116.62C93.1137 116.944 92.9277 117.412 92.9277 118.024C92.9277 118.648 93.1137 119.128 93.4857 119.464C93.8697 119.788 94.3857 119.95 95.0337 119.95ZM92.4057 125.152C92.4057 125.752 92.6577 126.196 93.1617 126.484C93.6657 126.784 94.2957 126.934 95.0517 126.934C95.7957 126.934 96.3897 126.772 96.8337 126.448C97.2897 126.124 97.5177 125.692 97.5177 125.152C97.5177 124.768 97.3617 124.432 97.0497 124.144C96.7377 123.868 96.1617 123.706 95.3217 123.658C94.6617 123.61 94.0917 123.55 93.6117 123.478C93.1197 123.742 92.7957 124.024 92.6397 124.324C92.4837 124.636 92.4057 124.912 92.4057 125.152ZM105.154 124.216C104.314 124.216 103.558 124.024 102.886 123.64C102.214 123.256 101.68 122.716 101.284 122.02C100.9 121.312 100.708 120.484 100.708 119.536C100.708 118.588 100.906 117.766 101.302 117.07C101.698 116.362 102.232 115.816 102.904 115.432C103.588 115.048 104.35 114.856 105.19 114.856C106.03 114.856 106.786 115.048 107.458 115.432C108.13 115.816 108.658 116.362 109.042 117.07C109.438 117.766 109.636 118.588 109.636 119.536C109.636 120.484 109.438 121.312 109.042 122.02C108.646 122.716 108.106 123.256 107.422 123.64C106.75 124.024 105.994 124.216 105.154 124.216ZM105.154 122.92C105.67 122.92 106.15 122.794 106.594 122.542C107.038 122.29 107.398 121.912 107.674 121.408C107.95 120.904 108.088 120.28 108.088 119.536C108.088 118.792 107.95 118.168 107.674 117.664C107.41 117.16 107.056 116.782 106.612 116.53C106.168 116.278 105.694 116.152 105.19 116.152C104.674 116.152 104.194 116.278 103.75 116.53C103.306 116.782 102.946 117.16 102.67 117.664C102.394 118.168 102.256 118.792 102.256 119.536C102.256 120.28 102.394 120.904 102.67 121.408C102.946 121.912 103.3 122.29 103.732 122.542C104.176 122.794 104.65 122.92 105.154 122.92ZM115.752 124.216C114.9 124.216 114.144 124.024 113.484 123.64C112.824 123.244 112.302 122.698 111.918 122.002C111.546 121.306 111.36 120.484 111.36 119.536C111.36 118.6 111.546 117.784 111.918 117.088C112.29 116.38 112.806 115.834 113.466 115.45C114.138 115.054 114.912 114.856 115.788 114.856C116.652 114.856 117.396 115.054 118.02 115.45C118.656 115.834 119.142 116.344 119.478 116.98C119.814 117.616 119.982 118.3 119.982 119.032C119.982 119.164 119.976 119.296 119.964 119.428C119.964 119.56 119.964 119.71 119.964 119.878H112.854C112.89 120.562 113.046 121.132 113.322 121.588C113.61 122.032 113.964 122.368 114.384 122.596C114.816 122.824 115.272 122.938 115.752 122.938C116.376 122.938 116.898 122.794 117.318 122.506C117.738 122.218 118.044 121.828 118.236 121.336H119.73C119.49 122.164 119.028 122.854 118.344 123.406C117.672 123.946 116.808 124.216 115.752 124.216ZM115.752 116.134C115.032 116.134 114.39 116.356 113.826 116.8C113.274 117.232 112.956 117.868 112.872 118.708H118.488C118.452 117.904 118.176 117.274 117.66 116.818C117.144 116.362 116.508 116.134 115.752 116.134ZM125.406 124.216C124.338 124.216 123.45 123.946 122.742 123.406C122.034 122.866 121.62 122.134 121.5 121.21H123.048C123.144 121.678 123.39 122.086 123.786 122.434C124.194 122.77 124.74 122.938 125.424 122.938C126.06 122.938 126.528 122.806 126.828 122.542C127.128 122.266 127.278 121.942 127.278 121.57C127.278 121.03 127.08 120.67 126.684 120.49C126.3 120.31 125.754 120.148 125.046 120.004C124.566 119.908 124.086 119.77 123.606 119.59C123.126 119.41 122.724 119.158 122.4 118.834C122.076 118.498 121.914 118.06 121.914 117.52C121.914 116.74 122.202 116.104 122.778 115.612C123.366 115.108 124.158 114.856 125.154 114.856C126.102 114.856 126.876 115.096 127.476 115.576C128.088 116.044 128.442 116.716 128.538 117.592H127.044C126.984 117.136 126.786 116.782 126.45 116.53C126.126 116.266 125.688 116.134 125.136 116.134C124.596 116.134 124.176 116.248 123.876 116.476C123.588 116.704 123.444 117.004 123.444 117.376C123.444 117.736 123.63 118.018 124.002 118.222C124.386 118.426 124.902 118.6 125.55 118.744C126.102 118.864 126.624 119.014 127.116 119.194C127.62 119.362 128.028 119.62 128.34 119.968C128.664 120.304 128.826 120.796 128.826 121.444C128.838 122.248 128.532 122.914 127.908 123.442C127.296 123.958 126.462 124.216 125.406 124.216ZM135.75 124V111.04H137.262V116.602C137.562 116.05 137.988 115.624 138.54 115.324C139.092 115.012 139.692 114.856 140.34 114.856C141.372 114.856 142.2 115.18 142.824 115.828C143.448 116.464 143.76 117.448 143.76 118.78V124H142.266V118.942C142.266 117.082 141.516 116.152 140.016 116.152C139.236 116.152 138.582 116.434 138.054 116.998C137.526 117.55 137.262 118.342 137.262 119.374V124H135.75ZM150.065 124.216C149.213 124.216 148.457 124.024 147.797 123.64C147.137 123.244 146.615 122.698 146.231 122.002C145.859 121.306 145.673 120.484 145.673 119.536C145.673 118.6 145.859 117.784 146.231 117.088C146.603 116.38 147.119 115.834 147.779 115.45C148.451 115.054 149.225 114.856 150.101 114.856C150.965 114.856 151.709 115.054 152.333 115.45C152.969 115.834 153.455 116.344 153.791 116.98C154.127 117.616 154.295 118.3 154.295 119.032C154.295 119.164 154.289 119.296 154.277 119.428C154.277 119.56 154.277 119.71 154.277 119.878H147.167C147.203 120.562 147.359 121.132 147.635 121.588C147.923 122.032 148.277 122.368 148.697 122.596C149.129 122.824 149.585 122.938 150.065 122.938C150.689 122.938 151.211 122.794 151.631 122.506C152.051 122.218 152.357 121.828 152.549 121.336H154.043C153.803 122.164 153.341 122.854 152.657 123.406C151.985 123.946 151.121 124.216 150.065 124.216ZM150.065 116.134C149.345 116.134 148.703 116.356 148.139 116.8C147.587 117.232 147.269 117.868 147.185 118.708H152.801C152.765 117.904 152.489 117.274 151.973 116.818C151.457 116.362 150.821 116.134 150.065 116.134ZM156.299 124V115.072H157.667L157.793 116.782C158.069 116.194 158.489 115.726 159.053 115.378C159.617 115.03 160.313 114.856 161.141 114.856V116.44H160.727C160.199 116.44 159.713 116.536 159.269 116.728C158.825 116.908 158.471 117.22 158.207 117.664C157.943 118.108 157.811 118.72 157.811 119.5V124H156.299ZM166.518 124.216C165.666 124.216 164.91 124.024 164.25 123.64C163.59 123.244 163.068 122.698 162.684 122.002C162.312 121.306 162.126 120.484 162.126 119.536C162.126 118.6 162.312 117.784 162.684 117.088C163.056 116.38 163.572 115.834 164.232 115.45C164.904 115.054 165.678 114.856 166.554 114.856C167.418 114.856 168.162 115.054 168.786 115.45C169.422 115.834 169.908 116.344 170.244 116.98C170.58 117.616 170.748 118.3 170.748 119.032C170.748 119.164 170.742 119.296 170.73 119.428C170.73 119.56 170.73 119.71 170.73 119.878H163.62C163.656 120.562 163.812 121.132 164.088 121.588C164.376 122.032 164.73 122.368 165.15 122.596C165.582 122.824 166.038 122.938 166.518 122.938C167.142 122.938 167.664 122.794 168.084 122.506C168.504 122.218 168.81 121.828 169.002 121.336H170.496C170.256 122.164 169.794 122.854 169.11 123.406C168.438 123.946 167.574 124.216 166.518 124.216ZM166.518 116.134C165.798 116.134 165.156 116.356 164.592 116.8C164.04 117.232 163.722 117.868 163.638 118.708H169.254C169.218 117.904 168.942 117.274 168.426 116.818C167.91 116.362 167.274 116.134 166.518 116.134Z" fill="white"/>
</svg>
