<svg width="172" height="129" viewBox="0 0 172 129" fill="none" xmlns="http://www.w3.org/2000/svg">
<circle cx="86" cy="31" r="31" fill="#212121"/>
<circle cx="86" cy="31" r="6" fill="#27AE60"/>
<path d="M59.158 98V87.254H55.486V85.4H65.152V87.254H61.462V98H59.158ZM67.5312 98L64.9212 89.072H67.2072L68.7552 95.498L70.5552 89.072H73.1112L74.9112 95.498L76.4772 89.072H78.7632L76.1352 98H73.7412L71.8332 91.322L69.9252 98H67.5312ZM81.4589 87.686C81.0389 87.686 80.6909 87.56 80.4149 87.308C80.1509 87.056 80.0189 86.738 80.0189 86.354C80.0189 85.97 80.1509 85.658 80.4149 85.418C80.6909 85.166 81.0389 85.04 81.4589 85.04C81.8789 85.04 82.2209 85.166 82.4849 85.418C82.7609 85.658 82.8989 85.97 82.8989 86.354C82.8989 86.738 82.7609 87.056 82.4849 87.308C82.2209 87.56 81.8789 87.686 81.4589 87.686ZM80.3069 98V89.072H82.6109V98H80.3069ZM88.9937 98C88.0577 98 87.3077 97.772 86.7437 97.316C86.1797 96.86 85.8977 96.05 85.8977 94.886V90.998H84.3677V89.072H85.8977L86.1677 86.678H88.2017V89.072H90.6137V90.998H88.2017V94.904C88.2017 95.336 88.2917 95.636 88.4717 95.804C88.6637 95.96 88.9877 96.038 89.4437 96.038H90.5597V98H88.9937ZM96.5699 98C95.6339 98 94.8839 97.772 94.3199 97.316C93.7559 96.86 93.4739 96.05 93.4739 94.886V90.998H91.9439V89.072H93.4739L93.7439 86.678H95.7779V89.072H98.1899V90.998H95.7779V94.904C95.7779 95.336 95.8679 95.636 96.0479 95.804C96.2399 95.96 96.5639 96.038 97.0199 96.038H98.1359V98H96.5699ZM104.278 98.216C103.378 98.216 102.58 98.024 101.884 97.64C101.188 97.256 100.642 96.716 100.246 96.02C99.8495 95.324 99.6515 94.52 99.6515 93.608C99.6515 92.684 99.8435 91.862 100.228 91.142C100.624 90.422 101.164 89.864 101.848 89.468C102.544 89.06 103.36 88.856 104.296 88.856C105.172 88.856 105.946 89.048 106.618 89.432C107.29 89.816 107.812 90.344 108.184 91.016C108.568 91.676 108.76 92.414 108.76 93.23C108.76 93.362 108.754 93.5 108.742 93.644C108.742 93.788 108.736 93.938 108.724 94.094H101.938C101.986 94.79 102.226 95.336 102.658 95.732C103.102 96.128 103.636 96.326 104.26 96.326C104.728 96.326 105.118 96.224 105.43 96.02C105.754 95.804 105.994 95.528 106.15 95.192H108.49C108.322 95.756 108.04 96.272 107.644 96.74C107.26 97.196 106.78 97.556 106.204 97.82C105.64 98.084 104.998 98.216 104.278 98.216ZM104.296 90.728C103.732 90.728 103.234 90.89 102.802 91.214C102.37 91.526 102.094 92.006 101.974 92.654H106.42C106.384 92.066 106.168 91.598 105.772 91.25C105.376 90.902 104.884 90.728 104.296 90.728ZM110.697 98V89.072H112.749L112.965 90.746C113.289 90.17 113.727 89.714 114.279 89.378C114.843 89.03 115.503 88.856 116.259 88.856V91.286H115.611C115.107 91.286 114.657 91.364 114.261 91.52C113.865 91.676 113.553 91.946 113.325 92.33C113.109 92.714 113.001 93.248 113.001 93.932V98H110.697Z" fill="white"/>
<path d="M4.464 124V119.212L0.36 111.4H2.07L5.22 117.772L8.37 111.4H10.062L5.976 119.212V124H4.464ZM14.1694 124.216C13.3294 124.216 12.5734 124.024 11.9014 123.64C11.2294 123.256 10.6954 122.716 10.2994 122.02C9.91538 121.312 9.72338 120.484 9.72338 119.536C9.72338 118.588 9.92138 117.766 10.3174 117.07C10.7134 116.362 11.2474 115.816 11.9194 115.432C12.6034 115.048 13.3654 114.856 14.2054 114.856C15.0454 114.856 15.8014 115.048 16.4734 115.432C17.1454 115.816 17.6734 116.362 18.0574 117.07C18.4534 117.766 18.6514 118.588 18.6514 119.536C18.6514 120.484 18.4534 121.312 18.0574 122.02C17.6614 122.716 17.1214 123.256 16.4374 123.64C15.7654 124.024 15.0094 124.216 14.1694 124.216ZM14.1694 122.92C14.6854 122.92 15.1654 122.794 15.6094 122.542C16.0534 122.29 16.4134 121.912 16.6894 121.408C16.9654 120.904 17.1034 120.28 17.1034 119.536C17.1034 118.792 16.9654 118.168 16.6894 117.664C16.4254 117.16 16.0714 116.782 15.6274 116.53C15.1834 116.278 14.7094 116.152 14.2054 116.152C13.6894 116.152 13.2094 116.278 12.7654 116.53C12.3214 116.782 11.9614 117.16 11.6854 117.664C11.4094 118.168 11.2714 118.792 11.2714 119.536C11.2714 120.28 11.4094 120.904 11.6854 121.408C11.9614 121.912 12.3154 122.29 12.7474 122.542C13.1914 122.794 13.6654 122.92 14.1694 122.92ZM28.5657 115.072V124H27.1977L27.1077 122.398C26.8197 122.962 26.4057 123.406 25.8657 123.73C25.3257 124.054 24.7137 124.216 24.0297 124.216C22.9737 124.216 22.1277 123.898 21.4917 123.262C20.8677 122.614 20.5557 121.624 20.5557 120.292V115.072H22.0677V120.13C22.0677 121.99 22.8357 122.92 24.3717 122.92C25.1397 122.92 25.7757 122.644 26.2797 122.092C26.7957 121.528 27.0537 120.73 27.0537 119.698V115.072H28.5657ZM31.0545 124V115.072H32.4225L32.5485 116.782C32.8245 116.194 33.2445 115.726 33.8085 115.378C34.3725 115.03 35.0685 114.856 35.8965 114.856V116.44H35.4825C34.9545 116.44 34.4685 116.536 34.0245 116.728C33.5805 116.908 33.2265 117.22 32.9625 117.664C32.6985 118.108 32.5665 118.72 32.5665 119.5V124H31.0545ZM46.3712 124.216C45.5192 124.216 44.7632 124.024 44.1032 123.64C43.4432 123.244 42.9212 122.698 42.5372 122.002C42.1652 121.306 41.9792 120.484 41.9792 119.536C41.9792 118.6 42.1652 117.784 42.5372 117.088C42.9092 116.38 43.4252 115.834 44.0852 115.45C44.7572 115.054 45.5312 114.856 46.4072 114.856C47.2712 114.856 48.0152 115.054 48.6392 115.45C49.2752 115.834 49.7612 116.344 50.0972 116.98C50.4332 117.616 50.6012 118.3 50.6012 119.032C50.6012 119.164 50.5952 119.296 50.5832 119.428C50.5832 119.56 50.5832 119.71 50.5832 119.878H43.4732C43.5092 120.562 43.6652 121.132 43.9412 121.588C44.2292 122.032 44.5832 122.368 45.0032 122.596C45.4352 122.824 45.8912 122.938 46.3712 122.938C46.9952 122.938 47.5172 122.794 47.9372 122.506C48.3572 122.218 48.6632 121.828 48.8552 121.336H50.3492C50.1092 122.164 49.6472 122.854 48.9632 123.406C48.2912 123.946 47.4272 124.216 46.3712 124.216ZM46.3712 116.134C45.6512 116.134 45.0092 116.356 44.4452 116.8C43.8932 117.232 43.5752 117.868 43.4912 118.708H49.1072C49.0712 117.904 48.7952 117.274 48.2792 116.818C47.7632 116.362 47.1272 116.134 46.3712 116.134ZM52.6053 124V115.072H53.9733L54.0813 116.368C54.3693 115.888 54.7533 115.516 55.2333 115.252C55.7133 114.988 56.2533 114.856 56.8533 114.856C57.5613 114.856 58.1673 115 58.6713 115.288C59.1873 115.576 59.5833 116.014 59.8593 116.602C60.1713 116.062 60.5973 115.636 61.1373 115.324C61.6893 115.012 62.2833 114.856 62.9193 114.856C63.9873 114.856 64.8393 115.18 65.4753 115.828C66.1113 116.464 66.4293 117.448 66.4293 118.78V124H64.9353V118.942C64.9353 118.018 64.7493 117.322 64.3773 116.854C64.0053 116.386 63.4713 116.152 62.7753 116.152C62.0553 116.152 61.4553 116.434 60.9753 116.998C60.5073 117.55 60.2733 118.342 60.2733 119.374V124H58.7613V118.942C58.7613 118.018 58.5753 117.322 58.2033 116.854C57.8313 116.386 57.2973 116.152 56.6013 116.152C55.8933 116.152 55.2993 116.434 54.8193 116.998C54.3513 117.55 54.1173 118.342 54.1173 119.374V124H52.6053ZM71.6768 124.216C70.9328 124.216 70.3148 124.09 69.8228 123.838C69.3308 123.586 68.9648 123.25 68.7248 122.83C68.4848 122.41 68.3648 121.954 68.3648 121.462C68.3648 120.55 68.7128 119.848 69.4088 119.356C70.1048 118.864 71.0528 118.618 72.2528 118.618H74.6648V118.51C74.6648 117.73 74.4608 117.142 74.0528 116.746C73.6448 116.338 73.0988 116.134 72.4148 116.134C71.8268 116.134 71.3168 116.284 70.8848 116.584C70.4648 116.872 70.2008 117.298 70.0928 117.862H68.5448C68.6048 117.214 68.8208 116.668 69.1928 116.224C69.5768 115.78 70.0508 115.444 70.6148 115.216C71.1788 114.976 71.7788 114.856 72.4148 114.856C73.6628 114.856 74.5988 115.192 75.2228 115.864C75.8588 116.524 76.1768 117.406 76.1768 118.51V124H74.8268L74.7368 122.398C74.4848 122.902 74.1128 123.334 73.6208 123.694C73.1408 124.042 72.4928 124.216 71.6768 124.216ZM71.9108 122.938C72.4868 122.938 72.9788 122.788 73.3868 122.488C73.8068 122.188 74.1248 121.798 74.3408 121.318C74.5568 120.838 74.6648 120.334 74.6648 119.806V119.788H72.3788C71.4908 119.788 70.8608 119.944 70.4888 120.256C70.1288 120.556 69.9488 120.934 69.9488 121.39C69.9488 121.858 70.1168 122.236 70.4528 122.524C70.8008 122.8 71.2868 122.938 71.9108 122.938ZM79.3631 113.092C79.0631 113.092 78.8111 112.996 78.6071 112.804C78.4151 112.6 78.3191 112.348 78.3191 112.048C78.3191 111.76 78.4151 111.52 78.6071 111.328C78.8111 111.136 79.0631 111.04 79.3631 111.04C79.6511 111.04 79.8971 111.136 80.1011 111.328C80.3051 111.52 80.4071 111.76 80.4071 112.048C80.4071 112.348 80.3051 112.6 80.1011 112.804C79.8971 112.996 79.6511 113.092 79.3631 113.092ZM78.6071 124V115.072H80.1191V124H78.6071ZM82.7518 124V111.04H84.2638V124H82.7518ZM95.0337 121.192C94.5297 121.192 94.0677 121.126 93.6477 120.994L92.7477 121.84C92.8797 121.936 93.0417 122.02 93.2337 122.092C93.4377 122.152 93.7257 122.212 94.0977 122.272C94.4697 122.32 94.9917 122.374 95.6637 122.434C96.8637 122.518 97.7217 122.794 98.2377 123.262C98.7537 123.73 99.0117 124.342 99.0117 125.098C99.0117 125.614 98.8677 126.106 98.5797 126.574C98.3037 127.042 97.8717 127.426 97.2837 127.726C96.7077 128.026 95.9637 128.176 95.0517 128.176C94.2477 128.176 93.5337 128.068 92.9097 127.852C92.2857 127.648 91.7997 127.33 91.4517 126.898C91.1037 126.478 90.9297 125.944 90.9297 125.296C90.9297 124.96 91.0197 124.594 91.1997 124.198C91.3797 123.814 91.7157 123.448 92.2077 123.1C91.9437 122.992 91.7157 122.878 91.5237 122.758C91.3437 122.626 91.1757 122.482 91.0197 122.326V121.912L92.5497 120.4C91.8417 119.8 91.4877 119.008 91.4877 118.024C91.4877 117.436 91.6257 116.902 91.9017 116.422C92.1777 115.942 92.5797 115.564 93.1077 115.288C93.6357 115 94.2777 114.856 95.0337 114.856C95.5497 114.856 96.0177 114.928 96.4377 115.072H99.7317V116.206L98.0577 116.278C98.4057 116.782 98.5797 117.364 98.5797 118.024C98.5797 118.612 98.4357 119.146 98.1477 119.626C97.8717 120.106 97.4697 120.49 96.9417 120.778C96.4257 121.054 95.7897 121.192 95.0337 121.192ZM95.0337 119.95C95.6697 119.95 96.1737 119.788 96.5457 119.464C96.9297 119.128 97.1217 118.648 97.1217 118.024C97.1217 117.412 96.9297 116.944 96.5457 116.62C96.1737 116.284 95.6697 116.116 95.0337 116.116C94.3857 116.116 93.8697 116.284 93.4857 116.62C93.1137 116.944 92.9277 117.412 92.9277 118.024C92.9277 118.648 93.1137 119.128 93.4857 119.464C93.8697 119.788 94.3857 119.95 95.0337 119.95ZM92.4057 125.152C92.4057 125.752 92.6577 126.196 93.1617 126.484C93.6657 126.784 94.2957 126.934 95.0517 126.934C95.7957 126.934 96.3897 126.772 96.8337 126.448C97.2897 126.124 97.5177 125.692 97.5177 125.152C97.5177 124.768 97.3617 124.432 97.0497 124.144C96.7377 123.868 96.1617 123.706 95.3217 123.658C94.6617 123.61 94.0917 123.55 93.6117 123.478C93.1197 123.742 92.7957 124.024 92.6397 124.324C92.4837 124.636 92.4057 124.912 92.4057 125.152ZM105.154 124.216C104.314 124.216 103.558 124.024 102.886 123.64C102.214 123.256 101.68 122.716 101.284 122.02C100.9 121.312 100.708 120.484 100.708 119.536C100.708 118.588 100.906 117.766 101.302 117.07C101.698 116.362 102.232 115.816 102.904 115.432C103.588 115.048 104.35 114.856 105.19 114.856C106.03 114.856 106.786 115.048 107.458 115.432C108.13 115.816 108.658 116.362 109.042 117.07C109.438 117.766 109.636 118.588 109.636 119.536C109.636 120.484 109.438 121.312 109.042 122.02C108.646 122.716 108.106 123.256 107.422 123.64C106.75 124.024 105.994 124.216 105.154 124.216ZM105.154 122.92C105.67 122.92 106.15 122.794 106.594 122.542C107.038 122.29 107.398 121.912 107.674 121.408C107.95 120.904 108.088 120.28 108.088 119.536C108.088 118.792 107.95 118.168 107.674 117.664C107.41 117.16 107.056 116.782 106.612 116.53C106.168 116.278 105.694 116.152 105.19 116.152C104.674 116.152 104.194 116.278 103.75 116.53C103.306 116.782 102.946 117.16 102.67 117.664C102.394 118.168 102.256 118.792 102.256 119.536C102.256 120.28 102.394 120.904 102.67 121.408C102.946 121.912 103.3 122.29 103.732 122.542C104.176 122.794 104.65 122.92 105.154 122.92ZM115.752 124.216C114.9 124.216 114.144 124.024 113.484 123.64C112.824 123.244 112.302 122.698 111.918 122.002C111.546 121.306 111.36 120.484 111.36 119.536C111.36 118.6 111.546 117.784 111.918 117.088C112.29 116.38 112.806 115.834 113.466 115.45C114.138 115.054 114.912 114.856 115.788 114.856C116.652 114.856 117.396 115.054 118.02 115.45C118.656 115.834 119.142 116.344 119.478 116.98C119.814 117.616 119.982 118.3 119.982 119.032C119.982 119.164 119.976 119.296 119.964 119.428C119.964 119.56 119.964 119.71 119.964 119.878H112.854C112.89 120.562 113.046 121.132 113.322 121.588C113.61 122.032 113.964 122.368 114.384 122.596C114.816 122.824 115.272 122.938 115.752 122.938C116.376 122.938 116.898 122.794 117.318 122.506C117.738 122.218 118.044 121.828 118.236 121.336H119.73C119.49 122.164 119.028 122.854 118.344 123.406C117.672 123.946 116.808 124.216 115.752 124.216ZM115.752 116.134C115.032 116.134 114.39 116.356 113.826 116.8C113.274 117.232 112.956 117.868 112.872 118.708H118.488C118.452 117.904 118.176 117.274 117.66 116.818C117.144 116.362 116.508 116.134 115.752 116.134ZM125.406 124.216C124.338 124.216 123.45 123.946 122.742 123.406C122.034 122.866 121.62 122.134 121.5 121.21H123.048C123.144 121.678 123.39 122.086 123.786 122.434C124.194 122.77 124.74 122.938 125.424 122.938C126.06 122.938 126.528 122.806 126.828 122.542C127.128 122.266 127.278 121.942 127.278 121.57C127.278 121.03 127.08 120.67 126.684 120.49C126.3 120.31 125.754 120.148 125.046 120.004C124.566 119.908 124.086 119.77 123.606 119.59C123.126 119.41 122.724 119.158 122.4 118.834C122.076 118.498 121.914 118.06 121.914 117.52C121.914 116.74 122.202 116.104 122.778 115.612C123.366 115.108 124.158 114.856 125.154 114.856C126.102 114.856 126.876 115.096 127.476 115.576C128.088 116.044 128.442 116.716 128.538 117.592H127.044C126.984 117.136 126.786 116.782 126.45 116.53C126.126 116.266 125.688 116.134 125.136 116.134C124.596 116.134 124.176 116.248 123.876 116.476C123.588 116.704 123.444 117.004 123.444 117.376C123.444 117.736 123.63 118.018 124.002 118.222C124.386 118.426 124.902 118.6 125.55 118.744C126.102 118.864 126.624 119.014 127.116 119.194C127.62 119.362 128.028 119.62 128.34 119.968C128.664 120.304 128.826 120.796 128.826 121.444C128.838 122.248 128.532 122.914 127.908 123.442C127.296 123.958 126.462 124.216 125.406 124.216ZM135.75 124V111.04H137.262V116.602C137.562 116.05 137.988 115.624 138.54 115.324C139.092 115.012 139.692 114.856 140.34 114.856C141.372 114.856 142.2 115.18 142.824 115.828C143.448 116.464 143.76 117.448 143.76 118.78V124H142.266V118.942C142.266 117.082 141.516 116.152 140.016 116.152C139.236 116.152 138.582 116.434 138.054 116.998C137.526 117.55 137.262 118.342 137.262 119.374V124H135.75ZM150.065 124.216C149.213 124.216 148.457 124.024 147.797 123.64C147.137 123.244 146.615 122.698 146.231 122.002C145.859 121.306 145.673 120.484 145.673 119.536C145.673 118.6 145.859 117.784 146.231 117.088C146.603 116.38 147.119 115.834 147.779 115.45C148.451 115.054 149.225 114.856 150.101 114.856C150.965 114.856 151.709 115.054 152.333 115.45C152.969 115.834 153.455 116.344 153.791 116.98C154.127 117.616 154.295 118.3 154.295 119.032C154.295 119.164 154.289 119.296 154.277 119.428C154.277 119.56 154.277 119.71 154.277 119.878H147.167C147.203 120.562 147.359 121.132 147.635 121.588C147.923 122.032 148.277 122.368 148.697 122.596C149.129 122.824 149.585 122.938 150.065 122.938C150.689 122.938 151.211 122.794 151.631 122.506C152.051 122.218 152.357 121.828 152.549 121.336H154.043C153.803 122.164 153.341 122.854 152.657 123.406C151.985 123.946 151.121 124.216 150.065 124.216ZM150.065 116.134C149.345 116.134 148.703 116.356 148.139 116.8C147.587 117.232 147.269 117.868 147.185 118.708H152.801C152.765 117.904 152.489 117.274 151.973 116.818C151.457 116.362 150.821 116.134 150.065 116.134ZM156.299 124V115.072H157.667L157.793 116.782C158.069 116.194 158.489 115.726 159.053 115.378C159.617 115.03 160.313 114.856 161.141 114.856V116.44H160.727C160.199 116.44 159.713 116.536 159.269 116.728C158.825 116.908 158.471 117.22 158.207 117.664C157.943 118.108 157.811 118.72 157.811 119.5V124H156.299ZM166.518 124.216C165.666 124.216 164.91 124.024 164.25 123.64C163.59 123.244 163.068 122.698 162.684 122.002C162.312 121.306 162.126 120.484 162.126 119.536C162.126 118.6 162.312 117.784 162.684 117.088C163.056 116.38 163.572 115.834 164.232 115.45C164.904 115.054 165.678 114.856 166.554 114.856C167.418 114.856 168.162 115.054 168.786 115.45C169.422 115.834 169.908 116.344 170.244 116.98C170.58 117.616 170.748 118.3 170.748 119.032C170.748 119.164 170.742 119.296 170.73 119.428C170.73 119.56 170.73 119.71 170.73 119.878H163.62C163.656 120.562 163.812 121.132 164.088 121.588C164.376 122.032 164.73 122.368 165.15 122.596C165.582 122.824 166.038 122.938 166.518 122.938C167.142 122.938 167.664 122.794 168.084 122.506C168.504 122.218 168.81 121.828 169.002 121.336H170.496C170.256 122.164 169.794 122.854 169.11 123.406C168.438 123.946 167.574 124.216 166.518 124.216ZM166.518 116.134C165.798 116.134 165.156 116.356 164.592 116.8C164.04 117.232 163.722 117.868 163.638 118.708H169.254C169.218 117.904 168.942 117.274 168.426 116.818C167.91 116.362 167.274 116.134 166.518 116.134Z" fill="white"/>
</svg>
